<?xml version="1.0" encoding="utf-8"?>
<!-- Generator: Adobe Illustrator 17.1.0, SVG Export Plug-In . SVG Version: 6.00 Build 0)  -->
<!DOCTYPE svg PUBLIC "-//W3C//DTD SVG 1.1//EN" "http://www.w3.org/Graphics/SVG/1.1/DTD/svg11.dtd">
<svg version="1.1" xmlns="http://www.w3.org/2000/svg" xmlns:xlink="http://www.w3.org/1999/xlink" x="0px" y="0px"
	 viewBox="0 0 515.6 112.9" enable-background="new 0 0 515.6 112.9" xml:space="preserve">
<g id="zz">
</g>
<g id="GameB">
</g>
<g id="Layer_1">
	<text transform="matrix(1 0 0 1 0.5002 87.2578)" fill="#FFFFFF" font-family="'ChunkFive-Roman'" font-size="100">GameB</text>
	<text transform="matrix(1 0 0 1 404.5047 85.4991)" fill="#FFFFFF" font-family="'ChunkFive-Roman'" font-size="100">zz</text>
	<path fill="#FFFFFF" stroke="#000000" stroke-width="1.1867" stroke-miterlimit="10" d="M402.5,31.8h-51.3c0,0,3.2,38.4,8.5,51.3
		c3.3,7.9,31,7.5,34.2,0C399.1,71.1,402.5,31.8,402.5,31.8z"/>
	<path fill="#C2952D" d="M398.8,36.2h-44.3c0,0,2.8,33.2,7.4,44.3c2.8,6.8,26.8,6.5,29.5,0C395.8,70.2,398.8,36.2,398.8,36.2z"/>
	<path fill="#FFFFFF" stroke="#000000" stroke-width="0.8251" stroke-miterlimit="10" d="M349.8,28.1c0,2.9,2.3,5.2,5.2,5.2
		c1.3,0,2.5-0.5,3.5-1.3c1.2,1.7,3.2,2.8,5.4,2.8c1.4,0,2.6-0.4,3.7-1.1c1.6,2.4,4.3,4.1,7.5,4.1c3.3,0,6.3-1.8,7.8-4.6
		c1.4,1,3,1.6,4.8,1.6c2.1,0,4.1-0.8,5.6-2.2c0.7,2.1,2.2,3.8,4.2,4.6c-0.1,0.4-0.1,0.9-0.1,1.3c0,3.7,3,6.7,6.7,6.7
		c3.7,0,6.7-3,6.7-6.7c0-2.5-1.3-4.6-3.4-5.8c0.3-0.7,0.4-1.5,0.4-2.4c0-3.7-2.6-6.7-6.1-7.3c0.1-0.5,0.2-1.1,0.2-1.6
		c0-4.1-3.3-7.4-7.4-7.4c-1.1,0-2.1,0.2-3,0.6c-0.1-4.5-3.7-8-8.2-8c-3.8,0-7,2.6-7.9,6c-1.7,0.3-3.3,1.2-4.4,2.4
		c-1-0.6-2.1-1-3.3-1c-1.7,0-3.3,0.7-4.4,1.9c-0.7-0.3-1.5-0.4-2.3-0.4c-3.7,0-6.7,3-6.7,6.7c0,0.3,0,0.5,0,0.8
		C351.7,23.3,349.8,25.4,349.8,28.1z"/>
</g>
</svg>
